# xmcd
#
# Track frame offsets: 
#        150
#        19767
#        34585
#        49348
#        65792
#        83113
#        102066
#        118300
#        138855
#        153525
#        170772
#        187311
#        202052
#        220145
#
# Disc length: 3162 seconds
#
# Revision: 0
# Processed by: cddbd v1.5.2PL0 Copyright (c) Steve Scherf et al.
# Submitted via: ExactAudioCopy v0.95b4
#
DISCID=d30c580e
DTITLE=Dan May - The Long Road Home
DYEAR=2008
DGENRE=Folk/Rock
TTITLE0=Water Under The Bridge
TTITLE1=A Thousend Angels
TTITLE2=Ponder In Wonder
TTITLE3=Bird In The Hand
TTITLE4=The Peculiar Mr Jones
TTITLE5=Shallow Grave
TTITLE6=Time And Again
TTITLE7=Nightbird
TTITLE8=Oh My, My
TTITLE9=Train Going Home
TTITLE10=The Last Spring
TTITLE11=Missing You, Love Me
TTITLE12=Irene
TTITLE13=Christmas In My Hometown
EXTD=
EXTT0=
EXTT1=
EXTT2=
EXTT3=
EXTT4=
EXTT5=
EXTT6=
EXTT7=
EXTT8=
EXTT9=
EXTT10=
EXTT11=
EXTT12=
EXTT13=
PLAYORDER=
